<svg width="3083" height="1228" viewBox="0 0 3083 1228" fill="none" xmlns="http://www.w3.org/2000/svg">
<path d="M574.579 599.198L567.964 600.852L563.002 602.506L558.041 604.159L553.079 605.813L548.117 607.467L541.502 609.121L536.54 610.775L531.579 612.429L526.617 614.083L521.655 615.736L516.694 617.39L511.732 619.044L506.771 620.698L501.809 622.352L496.847 624.006L490.232 625.66L485.27 627.314L480.309 628.967L475.347 630.621L470.385 632.275L465.424 633.929L460.462 635.583L457.981 636.41L455.5 637.237L450.539 638.891L445.577 640.545L443.923 642.198L445.577 643.852V648.814L447.231 650.468V653.776L448.885 655.429V658.737L450.539 660.391V663.699L452.193 665.353V668.66L453.847 670.314V673.622L455.5 675.276V676.93L457.154 678.584V681.891L458.808 683.545V685.199L460.462 686.853V690.161L462.116 691.815V693.469L463.77 695.122V696.776L465.424 698.43V700.084L467.078 701.738V703.392L468.731 705.046V706.7L470.385 708.353V710.007L473.693 713.315V714.969L475.347 716.623V718.277L478.655 721.584V723.238L480.309 724.892V726.546L483.616 729.854V731.508L488.578 736.469V738.123L491.886 741.431V743.085L498.501 749.7V751.354L505.117 757.97V759.624L533.233 787.739H534.886L543.156 796.009H544.81L549.771 800.97H551.425L556.387 805.932H558.041L561.348 809.24H563.002L566.31 812.548H567.964L571.272 815.855H572.926L574.579 817.509H576.233L579.541 820.817H581.195L582.849 822.471H584.503L586.156 824.125H587.81L589.464 825.779H591.118L592.772 827.432H594.426L596.08 829.086H597.734L599.387 830.74H601.041L602.695 832.394H604.349L606.003 834.048H607.657L609.311 835.702H612.618L614.272 837.356H615.926L617.58 839.009H620.888L622.542 840.663H624.196L625.849 842.317H629.157L630.811 843.971H634.119L635.773 845.625H640.734L642.388 847.279H645.696L647.35 848.933H652.311L653.965 850.587H658.927L660.581 852.24H667.196L668.85 853.894H675.466L677.12 855.548H687.043L688.697 857.202H705.235L706.889 858.856H744.928L746.582 857.202H761.467L763.121 855.548H774.698L776.352 853.894H784.621L786.275 852.24H791.237L792.891 850.587H797.852L799.506 848.933H804.468L806.122 847.279H809.429L811.083 845.625H816.045L817.699 843.971H821.007L822.66 842.317H825.968L827.622 840.663H829.276L830.93 839.009H834.238L835.891 837.356H837.545L839.199 835.702H842.507L844.161 834.048H845.815L847.469 832.394H849.122L850.776 830.74H852.43L854.084 829.086H855.738L857.392 827.432H859.046L860.7 825.779H862.353L864.007 824.125H865.661L867.315 822.471H868.969L870.623 820.817H872.277L875.584 817.509H877.238L880.546 814.201H882.2L920.239 852.24L933.47 864.645L935.124 863.818L978.125 822.471L1007.89 792.701L956.624 741.431L915.277 701.738L883.854 671.968L860.7 650.468L856.565 646.333L855.738 647.16L852.43 650.468V652.122L847.469 657.083V658.737L839.199 667.007V668.66L830.93 676.93H829.276L819.353 686.853H817.699L814.391 690.161H812.737L809.429 693.469H807.776L804.468 696.776H802.814L799.506 700.084H797.852L796.198 701.738H794.545L792.891 703.392H791.237L789.583 705.046H786.275L784.621 706.7H782.967L781.314 708.353H779.66L778.006 710.007H774.698L773.044 711.661H769.737L768.083 713.315H763.121L761.467 714.969H754.852L753.198 716.623H744.928L743.275 718.277H708.543L706.889 716.623H696.966L695.312 714.969H690.351L688.697 713.315H683.735L682.081 711.661H678.773L677.12 710.007H673.812L672.158 708.353H668.85L667.196 706.7H665.542L663.889 705.046H662.235L660.581 703.392H658.927L657.273 701.738H655.619L653.965 700.084H652.311L650.658 698.43H649.004L645.696 695.122H644.042L640.734 691.815H639.08L635.773 688.507H634.119L624.196 678.584H622.542L615.926 671.968V670.314L606.003 660.391V658.737L602.695 655.429V653.776L599.387 650.468V648.814L596.08 645.506V643.852L592.772 640.545V638.891L591.118 637.237V635.583L589.464 633.929V632.275L587.81 630.621V627.314L586.156 625.66V624.006L584.503 622.352V619.044L582.849 617.39V614.083L581.195 612.429V609.121L579.541 607.467V604.159L577.887 602.506V599.198H574.579Z" fill="black"/>
<path d="M698.62 280L696.966 281.654H685.389L683.735 283.308H673.812L672.158 284.962H665.542L663.888 286.615H657.273L655.619 288.269H650.657L649.004 289.923H644.042L642.388 291.577H639.08L637.426 293.231H634.119L632.465 294.885H629.157L627.503 296.539H624.195L622.542 298.193H619.234L617.58 299.846H615.926L614.272 301.5H610.965L609.311 303.154H607.657L606.003 304.808H604.349L602.695 306.462H601.041L599.387 308.116H597.734L596.08 309.77H594.426L592.772 311.424H591.118L589.464 313.077H587.81L586.156 314.731H584.503L582.849 316.385H581.195L579.541 318.039H577.887L574.579 321.347H572.925L571.272 323.001H569.618L566.31 326.308H564.656L561.348 329.616H559.694L556.387 332.924H554.733L551.425 336.232H549.771L544.81 341.193H543.156L534.886 349.463H533.232L503.463 379.232V380.886L495.193 389.156V390.81L490.232 395.771V397.425L486.924 400.733V402.387L481.962 407.348V409.002L480.308 410.656V412.31L477.001 415.618V417.272L475.347 418.925V420.579L472.039 423.887V425.541L470.385 427.195V428.849L468.731 430.503V432.156L467.077 433.81V435.464L463.77 438.772V442.08L462.116 443.734V445.387L460.462 447.041V448.695L458.808 450.349V452.003L457.154 453.657V455.311L455.5 456.965V460.272L453.846 461.926V463.58L452.193 465.234V468.542L450.539 470.196V473.503L448.885 475.157V478.465L447.231 480.119V483.427L445.577 485.08V490.042L443.923 491.696V495.004L442.269 496.658V503.273L440.615 504.927V509.888L438.962 511.542V519.812L437.308 521.466V531.389L435.654 533.043V551.235L434 552.889V561.159L435.654 562.812H574.579V559.505L576.233 557.851V546.274L577.887 544.62V538.004L579.541 536.35V529.735L581.195 528.081V524.773L582.849 523.119V519.812L584.503 518.158V514.85L586.156 513.196V511.542L587.81 509.888V508.235L589.464 506.581V504.927L591.118 503.273V501.619L592.772 499.965V498.311L594.426 496.658V495.004L597.734 491.696V490.042L599.387 488.388V486.734L604.349 481.773V480.119L610.965 473.503V471.849L625.849 456.965H627.503L635.773 448.695H637.426L640.734 445.387H642.388L645.696 442.08H647.35L649.004 440.426H650.657L652.311 438.772H653.965L657.273 435.464H658.927L660.581 433.81H663.888L665.542 432.156H667.196L668.85 430.503H672.158L673.812 428.849H677.119L678.773 427.195H682.081L683.735 425.541H688.697L690.35 423.887H695.312L696.966 422.233H705.235L706.889 420.579H743.274L744.928 422.233H754.852L756.505 423.887H763.121L764.775 425.541H768.083L769.736 427.195H773.044L774.698 428.849H778.006L779.66 430.503H782.967L784.621 432.156H786.275L787.929 433.81H791.237L792.891 435.464H794.545L797.852 438.772H799.506L801.16 440.426H802.814L804.468 442.08H806.122L809.429 445.387H811.083L814.391 448.695H816.045L822.66 455.311H824.314L844.161 475.157V476.811L849.122 481.773V483.427L852.43 486.734V488.388L855.738 491.696V493.35L857.392 495.004V496.658L859.046 498.311V499.965L860.699 501.619V503.273L862.353 504.927V506.581L864.007 508.235V509.888L865.661 511.542V513.196L867.315 514.85V518.158L868.969 519.812V523.119L870.623 524.773V528.081L872.277 529.735V534.697L873.93 536.35V542.966L875.584 544.62V557.851L877.238 559.505V576.043L875.584 577.697V590.928L873.93 592.582V599.198L872.277 600.852V602.505L880.546 610.775L892.123 620.698L902.046 628.967L911.97 637.237L923.547 647.16L935.124 657.083L945.047 665.353L956.624 675.276L966.547 683.545L978.125 693.469L983.913 698.43L984.74 696.776L986.394 695.122V693.469L988.048 691.815V690.161L989.702 688.507V686.853L991.356 685.199V683.545L993.009 681.891V680.238L994.663 678.584V676.93L996.317 675.276V673.622L997.971 671.968V668.66L999.625 667.007V665.353L1001.28 663.699V660.391L1002.93 658.737V655.429L1004.59 653.776V650.468L1006.24 648.814V643.852L1007.89 642.198V638.891L1009.55 637.237V632.275L1011.2 630.621V624.006L1012.86 622.352V615.736L1014.51 614.083V605.813L1016.16 604.159V590.928L1017.82 589.274V547.928L1016.16 546.274V531.389L1014.51 529.735V519.812L1012.86 518.158V511.542L1011.2 509.888V503.273L1009.55 501.619V495.004L1007.89 493.35V490.042L1006.24 488.388V483.427L1004.59 481.773V478.465L1002.93 476.811V473.503L1001.28 471.849V468.542L999.625 466.888V465.234L997.971 463.58V460.272L996.317 458.618V456.965L994.663 455.311V452.003L993.009 450.349V448.695L991.356 447.041V445.387L989.702 443.734V442.08L988.048 440.426V438.772L986.394 437.118V435.464L984.74 433.81V432.156L983.086 430.503V428.849L981.432 427.195V425.541L978.125 422.233V420.579L976.471 418.925V417.272L973.163 413.964V412.31L969.855 409.002V407.348L966.547 404.041V402.387L963.24 399.079V397.425L958.278 392.463V390.81L950.009 382.54V380.886L918.585 349.463H916.931L910.316 342.847H908.662L903.7 337.886H902.046L897.085 332.924H895.431L892.123 329.616H890.469L887.161 326.308H885.508L882.2 323.001H880.546L878.892 321.347H877.238L873.93 318.039H872.277L870.623 316.385H868.969L867.315 314.731H865.661L864.007 313.077H862.353L860.699 311.424H859.046L857.392 309.77H855.738L854.084 308.116H852.43L850.776 306.462H849.122L847.468 304.808H844.161L842.507 303.154H840.853L839.199 301.5H837.545L835.891 299.846H832.584L830.93 298.193H827.622L825.968 296.539H822.66L821.007 294.885H817.699L816.045 293.231H812.737L811.083 291.577H807.776L806.122 289.923H801.16L799.506 288.269H794.545L792.891 286.615H787.929L786.275 284.962H778.006L776.352 283.308H766.429L764.775 281.654H753.198L751.544 280H698.62Z" fill="black"/>
<path d="M1185.5 543.5V684C1185.5 715.5 1203 726.5 1221 726.5C1243.5 726.5 1265 712.5 1265 679V543.5H1358.5V798H1274.5L1270.5 770C1249 795 1218.5 804 1192 804C1137.5 804 1090.5 776.5 1090.5 684.5V543.5H1185.5ZM1603.31 543.5H1692.31V798H1604.81L1600.31 770.5C1578.31 795.5 1545.31 804 1516.81 802.5C1441.81 798.5 1400.31 744.5 1400.31 671C1400.31 595.5 1449.31 538 1523.81 538C1560.31 538 1584.81 550.5 1598.31 571L1603.31 543.5ZM1545.31 614.5C1516.81 614.5 1494.31 635.5 1494.31 671C1494.31 706.5 1516.81 726.5 1545.31 726.5C1577.31 726.5 1597.81 701 1597.81 671C1597.81 636.5 1578.81 614.5 1545.31 614.5ZM1843.81 614.5L1871.31 697L1896.81 614.5L1924.31 543.5H2024.81L1919.81 799.5H1825.31L1715.81 543.5H1816.31L1843.81 614.5ZM2171.71 538C2247.71 538 2314.21 578.5 2314.21 671.5C2314.21 764 2243.21 804 2171.71 804C2098.71 804 2030.21 764 2030.21 671.5C2030.21 576.5 2098.21 538 2171.71 538ZM2171.71 726.5C2204.21 726.5 2221.21 702 2221.21 671.5C2221.21 642.5 2204.71 615.5 2171.71 615.5C2138.71 615.5 2122.71 642.5 2122.71 671.5C2122.71 700.5 2138.21 726.5 2171.71 726.5ZM2529.21 798V657.5C2529.21 626 2511.21 615 2493.71 615C2470.71 615 2449.71 630.5 2449.71 664V798H2356.21V543.5H2440.21L2444.21 571.5C2465.71 546.5 2496.21 537.5 2522.21 537.5C2577.21 537.5 2623.71 565.5 2623.71 657V798H2529.21Z" fill="black"/>
</svg>
